<svg id="图层_1" data-name="图层 1" xmlns="http://www.w3.org/2000/svg" viewBox="0 0 286 377">
  <title>hi5 2.1 color</title>
  <g>
    <polygon points="108.5 346.5 108.5 346.52 108.49 346.52 108.47 346.5 108.5 346.5" style="fill: #070606"/>
    <path d="M366,458v0Zm-.53,0,0,0h0v0Z" transform="translate(-256.99 -111.51)" style="fill: #231815"/>
  </g>
  <path d="M511,216v.5h0c0-.17,0-.34,0-.5Z" transform="translate(-256.99 -111.51)"/>
  <g>
    <path d="M543,216v63a16,16,0,0,1-32,0v-62.5h0c0-.17,0-.34,0-.5A16,16,0,0,1,543,216Z" transform="translate(-256.99 -111.51)" style="fill: #393"/>
    <path d="M543,320a16,16,0,1,1-16-16A16,16,0,0,1,543,320Z" transform="translate(-256.99 -111.51)" style="fill: #393"/>
  </g>
  <path d="M479,164.51v110a16,16,0,0,1-32,0v-110h0a16,16,0,0,1,31.94,0Z" transform="translate(-256.99 -111.51)" style="fill: #fc3"/>
  <path d="M416.42,127.51v151h0a16,16,0,0,1-31.94,0h0v-21H351v64a16,16,0,0,1-32,0v-141h0a16,16,0,0,1,31.94,0h0v45h33.43v-98a16,16,0,1,1,32,0Z" transform="translate(-256.99 -111.51)" style="fill: #f33"/>
  <g>
    <polygon points="108.5 346.5 108.5 346.52 108.49 346.52 108.47 346.5 108.5 346.5"/>
    <path d="M366,458v0Z" transform="translate(-256.99 -111.51)"/>
    <path d="M350,401.51v.5c0-.17,0-.33,0-.5Zm31,0v.5c0-.17,0-.33,0-.5Z" transform="translate(-256.99 -111.51)"/>
  </g>
  <g>
    <polygon points="108.5 346.5 108.5 346.52 108.49 346.52 108.47 346.5 108.5 346.5"/>
    <path d="M366,458v0Z" transform="translate(-256.99 -111.51)"/>
    <path d="M365.47,458l0,0h0v0Zm.53,0v0Z" transform="translate(-256.99 -111.51)"/>
  </g>
  <path d="M263.27,425.2l0,0,.18.11.26.16Z" transform="translate(-256.99 -111.51)" style="fill: none"/>
  <path d="M366.57,488.47l-.57,0h-.76c-.4,0-.79,0-1.18-.06Z" transform="translate(-256.99 -111.51)"/>
  <path d="M523,402a86.6,86.6,0,0,1-86,86.49h-.5a15,15,0,0,1-3.69-.45,5.48,5.48,0,0,1-.58-.15c-.37-.1-.73-.22-1.08-.35l-.67-.26h0A15.5,15.5,0,0,1,436,457.52h1v0a55.5,55.5,0,1,0-56-56h0V473a15.53,15.53,0,0,1-14,15.42c-.15,0-3,0-3,0h0a14.93,14.93,0,0,1-5.55-1.62c-.41-.2-39.49-25.44-39.49-25.44l-54.13-35.09-1.6-1.09A16,16,0,0,1,257,412.51V279a16,16,0,0,1,32,0V406.57l28.67,19.06L350,447.11V402c0-.17,0-.33,0-.5a86.5,86.5,0,0,1,173,.5Z" transform="translate(-256.99 -111.51)" style="fill: #306cb6"/>
  <polygon points="108.5 346.5 108.5 346.52 108.49 346.52 108.47 346.5 108.5 346.5"/>
  <polygon points="108.64 347.4 108.64 347.42 108.63 347.42 108.61 347.4 108.64 347.4"/>
  <path d="M366,458v0Z" transform="translate(-256.99 -111.51)"/>
</svg>
