<svg id="图层_1" data-name="图层 1" xmlns="http://www.w3.org/2000/svg" viewBox="0 0 282 364.24">
  <title>hi5 1.12</title>
  <circle cx="141" cy="16" r="15.5" style="fill: #f06292;stroke: #f06292;stroke-linecap: round;stroke-miterlimit: 10"/>
  <path d="M100,360.92" transform="translate(0 0)" style="fill: #f06292;stroke: #f06292;stroke-linecap: round;stroke-miterlimit: 10"/>
  <polyline points="100.01 360.92 7.11 300.69 31.5 282.33 108.5 333.5 100.01 360.92" style="fill: #f06292;stroke: #fff;stroke-linecap: round;stroke-miterlimit: 10"/>
  <polyline points="15.98 272.01 108.5 333.52 108.5 363.56 100.01 360.92 6.77 299.97" style="fill: #fff;stroke: #fff;stroke-linecap: round;stroke-miterlimit: 10"/>
  <circle cx="266" cy="94" r="15.5" style="fill: #f06292;stroke: #f06292;stroke-linecap: round;stroke-miterlimit: 10"/>
  <circle cx="266" cy="156" r="15.5" style="fill: #f06292;stroke: #f06292;stroke-linecap: round;stroke-miterlimit: 10"/>
  <polyline points="281.5 145.5 281.5 93.5 281.5 155.5" style="fill: #f06292;stroke: #f06292;stroke-linecap: round;stroke-miterlimit: 10"/>
  <polyline points="250.5 145.5 250.5 93.5 250.5 155.5" style="fill: #f06292;stroke: #f06292;stroke-linecap: round;stroke-miterlimit: 10"/>
  <rect x="250.5" y="93.5" width="31" height="62" style="fill: #f06292;stroke: #f06292;stroke-linecap: round;stroke-miterlimit: 10"/>
  <circle cx="204" cy="156" r="15.5" style="fill: #bbdefb;stroke: #bbdefb;stroke-linecap: round;stroke-miterlimit: 10"/>
  <circle cx="266" cy="197" r="15.5" style="fill: #f06292;stroke: #f06292;stroke-linecap: round;stroke-miterlimit: 10"/>
  <circle cx="204" cy="47" r="15.5" style="fill: #bbdefb;stroke: #bbdefb;stroke-linecap: round;stroke-miterlimit: 10"/>
  <rect x="188.5" y="46.5" width="31" height="109" style="fill: #bbdefb;stroke: #bbdefb;stroke-linecap: round;stroke-miterlimit: 10"/>
  <circle cx="141" cy="156" r="15.5" style="fill: #f06292;stroke: #f06292;stroke-linecap: round;stroke-miterlimit: 10"/>
  <rect x="125.5" y="15.5" width="31" height="140" style="fill: #f06292;stroke: #f06292;stroke-linecap: round;stroke-miterlimit: 10"/>
  <circle cx="78" cy="57" r="15.5" style="fill: #f06292;stroke: #f06292;stroke-linecap: round;stroke-miterlimit: 10"/>
  <circle cx="78" cy="197" r="15.5" style="fill: #f06292;stroke: #f06292;stroke-linecap: round;stroke-miterlimit: 10"/>
  <rect x="62.5" y="56.5" width="31" height="140" style="fill: #f06292;stroke: #f06292;stroke-linecap: round;stroke-miterlimit: 10"/>
  <rect x="62.5" y="116.5" width="94" height="31" style="fill: #f06292;stroke: #f06292;stroke-linecap: round;stroke-miterlimit: 10"/>
  <circle cx="16" cy="166" r="15.5" style="fill: #fff;stroke: #fff;stroke-linecap: round;stroke-miterlimit: 10"/>
  <circle cx="16" cy="288" r="15.5" style="fill: #fff;stroke: #fff;stroke-linecap: round;stroke-miterlimit: 10"/>
  <rect x="0.5" y="165.5" width="31" height="122" style="fill: #fff;stroke: #fff;stroke-linecap: round;stroke-miterlimit: 10"/>
  <circle cx="179.5" cy="277.5" r="86" style="fill: #fff;stroke: #fff;stroke-linecap: round;stroke-miterlimit: 10"/>
  <circle cx="179.5" cy="277.5" r="55" style="stroke: #020202;stroke-linecap: round;stroke-miterlimit: 10"/>
  <rect x="93.5" y="277.5" width="31" height="69" style="fill: #fff;stroke: #fff;stroke-miterlimit: 10"/>
  <rect x="156.5" y="327.5" width="23" height="36.05" style="stroke: #020202;stroke-linecap: round;stroke-miterlimit: 10"/>
  <circle cx="108.5" cy="348.5" r="15" style="fill: #fff;stroke: #fff;stroke-linecap: round;stroke-miterlimit: 10"/>
  <circle cx="179.5" cy="348.5" r="15" style="fill: #fff;stroke: #fff;stroke-linecap: round;stroke-miterlimit: 10"/>
  <rect x="124.5" y="277.5" width="32" height="86.05" style="stroke: #020202;stroke-miterlimit: 10"/>
</svg>
