<?xml version="1.0" encoding="utf-8"?>
<!-- Generator: Adobe Illustrator 21.0.2, SVG Export Plug-In . SVG Version: 6.00 Build 0)  -->
<svg version="1.1" id="图层_1" xmlns="http://www.w3.org/2000/svg" xmlns:xlink="http://www.w3.org/1999/xlink" x="0px" y="0px"
	 viewBox="0 0 282 364.2" style="enable-background:new 0 0 282 364.2;" xml:space="preserve">
<style type="text/css">
	.st0{fill:#F06292;stroke:#F06292;stroke-linecap:round;stroke-miterlimit:10;}
	.st1{fill:#F06292;stroke:#FFFFFF;stroke-linecap:round;stroke-miterlimit:10;}
	.st2{fill:#FFFFFF;stroke:#FFFFFF;stroke-linecap:round;stroke-miterlimit:10;}
	.st3{fill:#BA68C8;stroke:#BA68C8;stroke-linecap:round;stroke-miterlimit:10;}
	.st4{fill:#BBDEFB;stroke:#BBDEFB;stroke-linecap:round;stroke-miterlimit:10;}
	.st5{stroke:#020202;stroke-linecap:round;stroke-miterlimit:10;}
	.st6{fill:#FFFFFF;stroke:#FFFFFF;stroke-miterlimit:10;}
	.st7{stroke:#020202;stroke-miterlimit:10;}
</style>
<title>hi5 1.1</title>
<circle class="st0" cx="141" cy="16" r="15.5"/>
<path class="st0" d="M100,360.9"/>
<polyline class="st1" points="100,360.9 7.1,300.7 31.5,282.3 108.5,333.5 100,360.9 "/>
<polyline class="st2" points="16,272 108.5,333.5 108.5,363.6 100,360.9 6.8,300 "/>
<circle class="st3" cx="266" cy="94" r="15.5"/>
<circle class="st3" cx="266" cy="156" r="15.5"/>
<polyline class="st0" points="281.5,145.5 281.5,93.5 281.5,155.5 "/>
<polyline class="st0" points="250.5,145.5 250.5,93.5 250.5,155.5 "/>
<rect x="250.5" y="93.5" class="st3" width="31" height="62"/>
<circle class="st4" cx="204" cy="156" r="15.5"/>
<circle class="st3" cx="266" cy="197" r="15.5"/>
<circle class="st4" cx="204" cy="47" r="15.5"/>
<rect x="188.5" y="46.5" class="st4" width="31" height="109"/>
<circle class="st0" cx="141" cy="156" r="15.5"/>
<rect x="125.5" y="15.5" class="st0" width="31" height="140"/>
<circle class="st0" cx="78" cy="57" r="15.5"/>
<circle class="st0" cx="78" cy="197" r="15.5"/>
<rect x="62.5" y="56.5" class="st0" width="31" height="140"/>
<rect x="62.5" y="116.5" class="st0" width="94" height="31"/>
<circle class="st2" cx="16" cy="166" r="15.5"/>
<circle class="st2" cx="16" cy="288" r="15.5"/>
<rect x="0.5" y="165.5" class="st2" width="31" height="122"/>
<circle class="st2" cx="179.5" cy="277.5" r="86"/>
<circle class="st5" cx="179.5" cy="277.5" r="55"/>
<rect x="93.5" y="277.5" class="st6" width="31" height="69"/>
<rect x="156.5" y="327.5" class="st5" width="23" height="36"/>
<circle class="st2" cx="108.5" cy="348.5" r="15"/>
<circle class="st2" cx="179.5" cy="348.5" r="15"/>
<rect x="124.5" y="277.5" class="st7" width="32" height="86"/>
</svg>
